HIERARCHY
ROOT Hips
{
  OFFSET 3.13124 94.3669 -3.18751
  CHANNELS  6 Xposition Yposition Zposition Zrotation Xrotation Yrotation
  JOINT LeftUpLeg
  {
    OFFSET 8.64259 1.95398 -2.38835
    CHANNELS 3 Zrotation Xrotation Yrotation
    JOINT LeftLeg
    {
      OFFSET 43.7702 0 0
      CHANNELS 3 Zrotation Xrotation Yrotation
      JOINT LeftFoot
      {
        OFFSET 40.6238 0 0
        CHANNELS 3 Zrotation Xrotation Yrotation
        JOINT LeftToeBase
        {
          OFFSET 12.7242 0 0
          CHANNELS 3 Zrotation Xrotation Yrotation
          End Site
          {
            OFFSET 0 0 0
          }
        }
      }
    }
  }
  JOINT RightUpLeg
  {
    OFFSET -8.2249 1.95398 -2.59336
    CHANNELS 3 Zrotation Xrotation Yrotation
    JOINT RightLeg
    {
      OFFSET 43.5653 0 0
      CHANNELS 3 Zrotation Xrotation Yrotation
      JOINT RightFoot
      {
        OFFSET 40.6238 0 0
        CHANNELS 3 Zrotation Xrotation Yrotation
        JOINT RightToeBase
        {
          OFFSET 12.7242 0 0
          CHANNELS 3 Zrotation Xrotation Yrotation
          End Site
          {
            OFFSET 0 0 0
          }
        }
      }
    }
  }
  JOINT Spine
  {
    OFFSET 0.165834 0.87714 6.61349
    CHANNELS 3 Zrotation Xrotation Yrotation
    JOINT Spine1
    {
      OFFSET 7.38962 1.71661e-005 0
      CHANNELS 3 Zrotation Xrotation Yrotation
      JOINT Spine2
      {
        OFFSET 11.9445 1.14441e-005 0
        CHANNELS 3 Zrotation Xrotation Yrotation
        JOINT Spine3
        {
          OFFSET 14.7254 4.19617e-005 0
          CHANNELS 3 Zrotation Xrotation Yrotation
          JOINT Spine4
          {
            OFFSET 10.9679 0 0
            CHANNELS 3 Zrotation Xrotation Yrotation
            JOINT RightShoulder
            {
              OFFSET 2.46616 -1.6653 3.69651
              CHANNELS 3 Zrotation Xrotation Yrotation
              JOINT RightArm
              {
                OFFSET 13.0012 0 0
                CHANNELS 3 Zrotation Xrotation Yrotation
                JOINT RightForeArm
                {
                  OFFSET 28.7848 1.52588e-005 0
                  CHANNELS 3 Zrotation Xrotation Yrotation
                  JOINT RightHand
                  {
                    OFFSET 26.5688 1.52588e-005 0
                    CHANNELS 3 Zrotation Xrotation Yrotation
                    End Site
                    {
                      OFFSET 0 0 0
                    }
                  }
                }
              }
            }
            JOINT LeftShoulder
            {
              OFFSET 2.38034 -1.29275 -3.75231
              CHANNELS 3 Zrotation Xrotation Yrotation
              JOINT LeftArm
              {
                OFFSET 16.3182 6.10352e-005 0
                CHANNELS 3 Zrotation Xrotation Yrotation
                JOINT LeftForeArm
                {
                  OFFSET 27.0901 0 0
                  CHANNELS 3 Zrotation Xrotation Yrotation
                  JOINT LeftHand
                  {
                    OFFSET 24.5451 1.52588e-005 0
                    CHANNELS 3 Zrotation Xrotation Yrotation
                    End Site
                    {
                      OFFSET 0 0 0
                    }
                  }
                }
              }
            }
            JOINT Neck
            {
              OFFSET 5.0226 -0.0266342 0
              CHANNELS 3 Zrotation Xrotation Yrotation
              JOINT Head
              {
                OFFSET 6.69363 2.86102e-005 0
                CHANNELS 3 Zrotation Xrotation Yrotation
                End Site
                {
                  OFFSET 0 0 0
                }
              }
            }
          }
        }
      }
    }
  }
}
MOTION
Frames:	8
Frame Time:	0.0333333
-1.63824 97.2212 -16.3813 -96.2012 -89.997 -96.2109 -170.922 3.22721 90.988 -10.091 8.78509 2.36157 63.9716 1.03001 0.518816 28.7808 5.58069e-006 -1.31614e-007 168.481 2.84477 91.6516 -10.3339 -11.1726 -1.76631 64.0351 -1.27976 -0.669335 28.7808 1.46437e-005 2.8166e-005 -0.000827238 6.35023 -89.9899 14.1935 -7.52487e-007 1.54629e-006 2.52251 9.9728e-007 0.0112301 -20.0127 1.58453e-006 -1.46796e-006 -4.73561e-038 -7.76503e-019 -3.49426e-018 100.909 -18.7919 -85.2571 10.3868 41.3 -35.3444 -1.77222 0.535894 -4.39534 -5.37983 -0.320005 -0.0162406 -79.1377 -21.8935 94.0023 5.97982 -40.2701 -23.531 1.4939 42.3282 -3.84813 -0.50207 -0.0160611 -0.502682 1.75565 -0.000363417 -0.00105397 -7.41049 0.00767529 0.00191823 
-1.65719 97.2283 -16.3782 -94.6519 -89.9546 -94.6413 -170.91 3.19471 91.0209 -10.037 8.78006 2.36224 63.9648 1.06117 0.537484 28.7808 5.58069e-006 -1.31614e-007 168.47 2.8731 91.6756 -10.3951 -11.2554 -1.74697 63.9366 -1.41701 -0.744997 28.7808 1.46437e-005 2.8166e-005 0.000303176 6.35023 -90.0042 14.1935 -3.16869e-005 -2.57159e-005 2.52253 -3.15591e-005 0.0112301 -20.0126 -2.00097e-005 -3.69156e-005 1.89199e-005 -2.15228e-005 -3.53901e-005 100.827 -18.8847 -85.3163 10.3418 41.3086 -35.3693 -1.75298 0.535885 -4.40863 -5.37983 -0.320005 -0.0162406 -79.1879 -21.8654 94.0106 6.00229 -40.2418 -23.4915 1.528 42.4777 -3.89427 -0.585806 -0.0160612 -0.477278 1.77991 -0.00464596 -0.0188441 -7.39472 0.00773137 0.0289059 
-1.67521 97.2221 -16.3803 -78.4041 -89.9 -78.4009 -170.913 3.22716 91.0179 -10.0643 8.7292 2.36728 63.9858 1.05829 0.535439 28.7808 5.58069e-006 -1.31614e-007 168.471 2.87662 91.6745 -10.3513 -11.2614 -1.7364 64.0104 -1.30514 -0.683186 28.7808 1.46437e-005 2.8166e-005 -0.000414673 6.35023 -89.992 14.1931 0.000615733 0.000546848 2.52214 0.000634225 0.0112301 -20.013 0.000421004 0.000702184 -0.000371348 0.000420755 0.00070417 100.74 -18.941 -85.5503 10.1923 41.363 -35.1586 -1.74381 0.535876 -4.42095 -5.37983 -0.320005 -0.0162406 -79.1933 -21.8122 93.9846 5.99069 -40.2487 -23.4358 1.5383 42.5566 -3.871 -0.464129 -0.016061 -0.556745 1.71499 0.0141246 -0.0577087 -7.25012 0.00958667 0.00176923 
-1.68835 97.2168 -16.3786 -72.549 -89.8258 -72.5274 -170.905 3.22483 91.0418 -9.99706 8.50001 2.29177 63.9889 1.12919 0.577326 28.7808 5.58069e-006 -1.31614e-007 168.5 2.94159 91.7219 -10.4121 -11.3476 -1.76452 63.9244 -1.41872 -0.745454 28.7808 1.46437e-005 2.8166e-005 0.00748477 6.35023 -90.0006 14.1826 0.0177724 0.015396 2.51169 0.018436 0.0112301 -20.0235 0.01232 0.0200361 -0.0108161 0.012323 0.0200326 100.793 -18.9916 -85.5246 10.3001 41.3507 -35.2404 -1.78348 0.535918 -4.36218 -5.37983 -0.320005 -0.0162406 -79.148 -21.7272 93.9805 6.09571 -40.2108 -23.3457 1.46323 42.2148 -3.9044 -0.389416 -0.0160608 -0.63527 1.78318 0.00326759 -0.192484 -7.20305 0.0253189 -0.00537469 
-1.70453 97.22 -16.3742 -73.7024 -89.7623 -73.6787 -170.902 3.22238 91.0553 -9.98235 8.58654 2.33947 63.9841 1.00896 0.508418 28.7808 5.58069e-006 -1.31614e-007 168.489 2.93726 91.7196 -10.3813 -11.3989 -1.74779 63.9612 -1.35117 -0.707893 28.7808 1.46437e-005 2.8166e-005 0.0103798 6.35023 -89.9924 14.1778 0.0252877 0.0172119 2.50682 0.0260191 0.0112301 -20.0283 0.018947 0.0239059 -0.0156841 0.0189547 0.0239101 100.788 -19.04 -85.5393 10.244 41.3687 -35.2126 -1.76726 0.5359 -4.3867 -5.37983 -0.320005 -0.0162406 -79.1235 -21.7549 94.0303 6.10469 -40.2949 -23.4025 1.53191 42.614 -3.8706 -0.390953 -0.0160609 -0.580005 1.76355 0.00160091 -0.224503 -7.08702 0.0329898 -0.0392728 
-1.71636 97.2375 -16.3654 -75.4038 -89.7488 -75.3947 -170.874 3.25058 91.0662 -10.0596 8.63886 2.3413 63.9524 0.906763 0.447875 28.7808 5.58069e-006 -1.31614e-007 168.491 2.88012 91.7083 -10.2834 -11.3972 -1.74398 63.9467 -1.30701 -0.684134 28.7808 1.46437e-005 2.8166e-005 0.0106648 6.35017 -89.9723 14.1782 0.0289869 0.0177342 2.50727 0.0296596 0.0112301 -20.0279 0.022699 0.0204349 -0.0152289 0.0226992 0.0204374 100.786 -19.0657 -85.5484 10.15 41.4301 -35.1466 -1.77033 0.535908 -4.37647 -5.37983 -0.320005 -0.0162406 -79.1332 -21.7274 94.0019 6.19841 -40.2785 -23.2594 1.4559 42.378 -3.88191 -0.301175 -0.0160613 -0.43079 1.68108 -0.00469214 -0.221131 -6.96482 0.029495 -0.0797555 
-1.71654 97.2094 -16.3572 -64.522 -89.7147 -64.5035 -170.907 3.24693 91.0497 -9.94067 8.51356 2.30525 63.9846 1.1396 0.583102 28.7808 5.58069e-006 -1.31614e-007 168.51 2.9953 91.7428 -10.3998 -11.4464 -1.76511 63.9429 -1.43414 -0.754558 28.7808 1.46437e-005 2.8166e-005 0.013505 6.35023 -90.0004 14.1814 0.0322708 0.0168473 2.51041 0.0329339 0.0112301 -20.0247 0.0232299 0.017628 -0.0120902 0.0232315 0.0176275 100.814 -18.9564 -85.4838 10.2525 41.4636 -35.2277 -1.84398 0.535912 -4.3702 -5.37983 -0.320005 -0.0162406 -79.0921 -21.7945 94.1004 6.21141 -40.3067 -23.2801 1.53301 42.5249 -3.90354 -0.516114 -0.0160612 -0.47344 1.79447 -0.00964096 -0.056967 -7.11826 0.0039212 -0.253501 
-1.71731 97.2213 -16.3371 -65.8677 -89.7644 -65.8577 -170.889 3.22413 91.0544 -9.97109 8.63306 2.3276 63.9877 1.06892 0.542171 28.7808 5.58069e-006 -1.31614e-007 168.483 2.9249 91.7116 -10.3463 -11.3893 -1.7407 63.9982 -1.33754 -0.700858 28.7808 1.46437e-005 2.8166e-005 0.0139156 6.35023 -89.9905 14.1849 0.0318608 0.0121575 2.51396 0.0323707 0.0104507 -20.0212 0.022448 0.0213149 -0.00854382 0.0224539 0.0213141 100.854 -18.9591 -85.3936 10.1375 41.5107 -35.1397 -1.82379 0.535927 -4.34921 -5.37983 -0.320005 -0.0162406 -79.1105 -21.7514 94.0457 6.2814 -40.3084 -23.1618 1.49338 42.4942 -3.90012 -0.383637 -0.0160614 -0.374175 1.71655 -0.0730493 -0.0882468 -7.0428 -0.0464979 -0.25836 
